<svg width="24.000000" height="17.000000" viewBox="0 0 24 17" fill="none" xmlns="http://www.w3.org/2000/svg" xmlns:xlink="http://www.w3.org/1999/xlink">
	<desc>
			Created with Pixso.
	</desc>
	<defs/>
	<path id="Shape" d="M7.83 16.74C8.16 17.08 8.7 17.08 9.04 16.74C9.37 16.41 9.37 15.86 9.04 15.53L4.6 11.06C3.98 10.43 4.42 9.35 5.31 9.35L23.15 9.35C23.62 9.35 24 8.98 24 8.5C24 8.03 23.62 7.64 23.15 7.64L5.32 7.64C4.43 7.64 3.98 6.56 4.61 5.93L9.04 1.47C9.37 1.13 9.37 0.58 9.04 0.25C8.7 -0.09 8.16 -0.09 7.83 0.25L0.25 7.89C-0.09 8.22 -0.09 8.77 0.25 9.1L7.83 16.74Z" fill="#F9FBFF" fill-opacity="1.000000" fill-rule="nonzero"/>
</svg>
