<svg width="79.000000" height="79.000000" viewBox="0 0 79 79" fill="none" xmlns="http://www.w3.org/2000/svg" xmlns:xlink="http://www.w3.org/1999/xlink">
	<desc>
			Created with Pixso.
	</desc>
	<defs/>
	<path id="Shape" d="M69.29 45.73C67.85 48.72 64.78 50.8 61.22 50.8L61.22 45.73L17.77 45.73L17.77 50.8C14.21 50.8 11.14 48.72 9.7 45.73L5 45.73L5 73.61L74 73.61L74 45.73L69.29 45.73Z" fill="#C7A17A" fill-opacity="1.000000" fill-rule="nonzero"/>
	<path id="Shape" d="M71.2119 40.4464L75.0268 40.4464C77.13 40.4464 78.8417 42.1511 78.8417 44.2458L78.8417 74.6427C78.8417 76.7374 77.13 78.4421 75.0268 78.4421L3.81549 78.4421C1.71222 78.4421 0.000610352 76.7374 0.000610352 74.6427L0.000610352 44.2471C0.000610352 42.1523 1.71222 40.4477 3.81549 40.4477L7.6304 40.4477L7.6304 39.1812C7.6304 35.0588 10.2105 31.3582 13.9885 29.8219L13.9885 25.7426C10.2105 24.2063 7.6304 20.5057 7.6304 16.3832L7.6304 15.1168C3.42258 15.1168 0.000610352 11.7087 0.000610352 7.51788C0.000610352 3.32709 3.42258 -0.0809937 7.6304 -0.0809937L71.2119 -0.0809937C75.4197 -0.0809937 78.8417 3.32709 78.8417 7.51788C78.8417 11.7087 75.4197 15.1168 71.2119 15.1168L71.2119 16.3832C71.2119 20.5057 68.6317 24.2076 64.8537 25.7426L64.8537 29.8206C68.6317 31.3569 71.2119 35.0588 71.2119 39.1799L71.2119 40.4464ZM68.6686 39.1799L68.6686 41.7129C68.6686 45.4718 65.9143 48.6013 62.3105 49.2067L62.3105 46.6193C64.5015 46.0557 66.1254 44.0698 66.1254 41.7129L66.1254 39.1799C66.1254 37.7792 65.5366 36.4823 64.5676 35.5464C64.7495 35.1031 64.8537 34.6206 64.8537 34.114L64.8537 32.6284C67.1554 33.9684 68.6686 36.4494 68.6686 39.1799ZM20.3467 15.1168L20.3467 16.3832C20.3467 16.6783 20.2831 16.9646 20.1839 17.2369C19.529 16.7113 18.7076 16.3832 17.8034 16.3832C16.8993 16.3832 16.0778 16.7113 15.4229 17.2369C15.3238 16.9646 15.2602 16.6783 15.2602 16.3832L15.2602 15.1168L20.3467 15.1168ZM16.5318 34.114L16.5318 20.1827C16.5318 19.4849 17.1028 18.9163 17.8034 18.9163C18.5041 18.9163 19.0751 19.4849 19.0751 20.1827L19.0751 34.114C19.0751 34.8118 18.5041 35.3805 17.8034 35.3805C17.1028 35.3805 16.5318 34.8118 16.5318 34.114ZM21.5738 19.7407C22.4016 18.8174 22.89 17.632 22.89 16.3832L22.89 15.1168L25.4332 15.1168L25.4332 16.3832C25.4332 19.1138 23.92 21.5948 21.6183 22.9348L21.6183 20.1827C21.6183 20.032 21.5903 19.8876 21.5738 19.7407ZM15.2602 39.1799C15.2602 38.5087 15.5488 37.902 15.9964 37.4398C16.5369 37.7324 17.146 37.9135 17.8034 37.9135C18.4609 37.9135 19.07 37.7324 19.6104 37.4398C20.058 37.902 20.3467 38.5099 20.3467 39.1799L20.3467 40.4464L15.2602 40.4464L15.2602 39.1799ZM21.3322 35.5464C21.514 35.1044 21.6183 34.6219 21.6183 34.114L21.6183 32.6284C23.92 33.9696 25.4332 36.4507 25.4332 39.1799L25.4332 40.4464L22.89 40.4464L22.89 39.1799C22.89 37.7792 22.3012 36.4811 21.3322 35.5464ZM21.6183 29.8206L21.6183 25.7426C25.3963 24.2063 27.9765 20.5057 27.9765 16.3832L27.9765 15.1168L50.8658 15.1168L50.8658 16.3832C50.8658 20.5044 53.4459 24.2063 57.2239 25.7426L57.2239 29.8219C53.4459 31.3569 50.8658 35.0588 50.8658 39.1812L50.8658 40.4477L27.9765 40.4477L27.9765 39.1812C27.9765 35.0576 25.3963 31.3569 21.6183 29.8206ZM59.7672 34.114L59.7672 20.1827C59.7672 19.4849 60.3382 18.9163 61.0388 18.9163C61.7395 18.9163 62.3105 19.4849 62.3105 20.1827L62.3105 34.114C62.3105 34.8118 61.7395 35.3805 61.0388 35.3805C60.3382 35.3805 59.7672 34.8118 59.7672 34.114ZM63.5821 16.3832C63.5821 16.6783 63.5185 16.9646 63.4193 17.2369C62.7644 16.7113 61.943 16.3832 61.0388 16.3832C60.1347 16.3832 59.3132 16.7113 58.6584 17.2369C58.5592 16.9646 58.4956 16.6783 58.4956 16.3832L58.4956 15.1168L63.5821 15.1168L63.5821 16.3832ZM57.2685 19.7407C57.2507 19.8876 57.2239 20.0308 57.2239 20.1827L57.2239 22.9348C54.9223 21.5936 53.4091 19.1125 53.4091 16.3832L53.4091 15.1168L55.9523 15.1168L55.9523 16.3832C55.9523 17.6333 56.4406 18.8174 57.2685 19.7407ZM53.4091 39.1799C53.4091 36.4494 54.9223 33.9684 57.2239 32.6284L57.2239 34.114C57.2239 34.6206 57.3282 35.1031 57.5101 35.5464C56.5411 36.4823 55.9523 37.7792 55.9523 39.1799L55.9523 40.4464L53.4091 40.4464L53.4091 39.1799ZM58.4956 39.1799C58.4956 38.5087 58.7842 37.902 59.2318 37.4398C59.7723 37.7324 60.3814 37.9135 61.0388 37.9135C61.6963 37.9135 62.3054 37.7324 62.8458 37.4398C63.2934 37.902 63.5821 38.5099 63.5821 39.1799L63.5821 40.4464L58.4956 40.4464L58.4956 39.1799ZM68.6686 16.3832C68.6686 19.1138 67.1554 21.5948 64.8537 22.9348L64.8537 20.1827C64.8537 20.032 64.8257 19.8876 64.8092 19.7419C65.6371 18.8174 66.1254 17.6333 66.1254 16.3832L66.1254 13.8503C66.1254 11.4946 64.5015 9.50879 62.3105 8.94397L62.3105 6.35651C65.9143 6.96191 68.6686 10.0914 68.6686 13.8503L68.6686 16.3832ZM2.54388 7.51788C2.54388 4.72406 4.82516 2.45197 7.6304 2.45197L71.2119 2.45197C74.0171 2.45197 76.2984 4.72406 76.2984 7.51788C76.2984 10.3118 74.0171 12.5838 71.2119 12.5838L71.1241 12.5838C70.4947 7.59387 66.2169 3.71844 61.0388 3.71844L59.7672 3.71844L59.7672 11.3173L61.0388 11.3173C61.976 11.3173 62.7873 11.8303 63.2286 12.5838L15.6137 12.5838C16.0549 11.8303 16.8662 11.3173 17.8034 11.3173L19.0751 11.3173L19.0751 3.71844L17.8034 3.71844C12.6254 3.71844 8.3476 7.59387 7.71814 12.5838L7.6304 12.5838C4.82516 12.5838 2.54388 10.3118 2.54388 7.51788ZM10.1736 16.3832L10.1736 13.8503C10.1736 10.0914 12.928 6.96191 16.5318 6.35651L16.5318 8.94397C14.3408 9.50757 12.7169 11.4934 12.7169 13.8503L12.7169 16.3832C12.7169 17.632 13.2052 18.8174 14.0331 19.7419C14.0152 19.8889 13.9885 20.032 13.9885 20.1827L13.9885 22.9348C11.6869 21.5948 10.1736 19.1138 10.1736 16.3832ZM10.1736 39.1799C10.1736 36.4494 11.6869 33.9684 13.9885 32.6284L13.9885 34.114C13.9885 34.6219 14.0928 35.1031 14.2747 35.5464C13.3057 36.4823 12.7169 37.7792 12.7169 39.1799L12.7169 41.7129C12.7169 44.0685 14.3408 46.0544 16.5318 46.6193L16.5318 49.2067C12.928 48.6013 10.1736 45.4718 10.1736 41.7129L10.1736 39.1799ZM76.2984 74.6414C76.2984 75.3392 75.7274 75.9079 75.0268 75.9079L3.81549 75.9079C3.11484 75.9079 2.54388 75.3392 2.54388 74.6414L2.54388 44.2458C2.54388 43.548 3.11484 42.9794 3.81549 42.9794L7.71814 42.9794C8.3476 47.9693 12.6254 51.8447 17.8034 51.8447L19.0751 51.8447L19.0751 44.2458L17.8034 44.2458C16.8662 44.2458 16.0549 43.7329 15.6137 42.9794L63.2286 42.9794C62.7873 43.7329 61.976 44.2458 61.0388 44.2458L59.7672 44.2458L59.7672 51.8447L61.0388 51.8447C66.2169 51.8447 70.4947 47.9693 71.1241 42.9794L75.0268 42.9794C75.7274 42.9794 76.2984 43.548 76.2984 44.2458L76.2984 74.6414Z" clip-rule="evenodd" fill="#232C38" fill-opacity="1.000000" fill-rule="evenodd"/>
	<path id="Shape" d="M41.47 50L41.47 50L41.48 50L41.47 50Z" fill="#232C38" fill-opacity="1.000000" fill-rule="nonzero"/>
	<path id="Shape" d="M41.8334 50.3782C41.7139 50.254 41.6045 50.1236 41.4799 50.002C36.0322 44.7208 27.9027 44.009 23.3579 48.4164C21.4161 50.2984 20.3467 52.9225 20.3467 55.8038C20.3467 59.4715 22.0405 63.2178 24.9932 66.0813C28.0388 69.0334 31.9223 70.557 35.549 70.557C36.0411 70.557 36.5244 70.519 37.005 70.462L36.9999 70.4684C39.0053 72.4111 41.7062 73.3597 44.5674 73.3597C48.1941 73.3597 52.0789 71.8362 55.1232 68.884C58.0759 66.0217 59.7697 62.2755 59.7697 58.6078C59.7697 55.7265 58.7003 53.1024 56.7585 51.2191C53.0988 47.6743 46.9873 47.3842 41.8334 50.3782ZM39.706 51.8169C37.1449 49.3333 33.9023 48.0402 30.9305 48.0402C29.1807 48.0402 27.539 48.5076 26.1682 49.4232L42.145 64.9123C43.0834 63.623 43.5819 62.0475 43.5819 60.2783C43.5819 57.2894 42.1691 54.2054 39.706 51.8169ZM40.0849 69.6553C43.7866 71.8995 49.3793 70.9142 53.3467 67.0691C55.8112 64.6805 57.2239 61.5967 57.2227 58.6078C57.2227 56.8385 56.7242 55.2617 55.7857 53.9737L53.8541 55.8468L52.0789 54.032L53.9419 52.226C51.1494 50.3668 47.1132 50.425 43.4992 52.3741C45.0952 54.6576 46.0031 57.2513 46.0997 59.8287L50.5619 55.5023L52.3371 57.3185L45.483 63.9637C44.9756 65.3669 44.1834 66.6309 43.1152 67.6669C42.2276 68.5269 41.1989 69.1816 40.0849 69.6553ZM26.7659 64.2676C24.3015 61.8791 22.89 58.7952 22.89 55.8063C22.89 54.037 23.3871 52.4615 24.3269 51.1735L40.31 66.6689C36.6159 69.1436 30.8364 68.2141 26.7659 64.2676Z" clip-rule="evenodd" fill="#232C38" fill-opacity="1.000000" fill-rule="evenodd"/>
	<rect id="Rectangle-path" x="24.161621" y="4.984985" width="25.432596" height="2.532963" fill="#232C38" fill-opacity="1.000000"/>
	<rect id="Rectangle-path" x="52.137451" y="4.984985" width="2.543260" height="2.532963" fill="#232C38" fill-opacity="1.000000"/>
</svg>
