<svg width="80.000000" height="81.000000" viewBox="0 0 80 81" fill="none" xmlns="http://www.w3.org/2000/svg" xmlns:xlink="http://www.w3.org/1999/xlink">
	<desc>
			Created with Pixso.
	</desc>
	<defs/>
	<path id="Shape" d="M21.96 31.74C21.96 27.98 24.85 24.93 28.4 24.93L1.35 24.93L1.35 35.82L23.25 35.82L23.26 35.8C22.46 34.67 21.96 33.27 21.96 31.74Z" fill="#C7A17A" fill-opacity="1.000000" fill-rule="nonzero"/>
	<rect id="Rectangle-path" x="50.305084" y="23.575806" width="28.338984" height="13.614666" fill="#C7A17A" fill-opacity="1.000000"/>
	<path id="Shape" d="M40 -0.930603C46.8748 -0.930603 52.9084 2.69836 56.3432 8.13855L80 8.13855L80 79.3959L0 79.3959L0 8.13855L23.6568 8.13855C27.0903 2.69836 33.1252 -0.930603 40 -0.930603ZM40 1.66058C49.249 1.66058 56.7742 9.21643 56.7742 18.5032L56.7742 21.0944L77.4193 21.0944L77.4193 41.8239L47.2826 41.8239C49.92 39.6848 51.6129 36.4161 51.6129 32.7547L51.6129 21.0944L28.3871 21.0944L28.3871 23.6856C24.1174 23.6856 20.6452 27.172 20.6452 31.4591C20.6452 35.7462 24.1174 39.2327 28.3871 39.2327L30.351 39.2327C31.0052 40.2122 31.8052 41.084 32.7174 41.8239L2.58064 41.8239L2.58064 21.0944L23.2258 21.0944L23.2258 18.5032C23.2258 9.21643 30.751 1.66058 40 1.66058ZM54.1936 49.5974L25.8064 49.5974L25.8064 44.415L54.1936 44.415L54.1936 49.5974ZM30.9677 32.7547L30.9677 23.6856L49.0323 23.6856L49.0323 32.7547C49.0323 37.7557 44.9806 41.8239 40 41.8239C35.0194 41.8239 30.9677 37.7557 30.9677 32.7547ZM29.0645 36.6415L28.3871 36.6415C25.5406 36.6415 23.2258 34.3172 23.2258 31.4591C23.2258 28.6011 25.5406 26.2768 28.3871 26.2768L28.3871 32.7547C28.3871 34.119 28.6335 35.4236 29.0645 36.6415ZM2.58064 15.912L15.4839 15.912L15.4839 13.3209L2.58064 13.3209L2.58064 10.7297L22.2723 10.7297C21.9084 11.5641 21.6103 12.4308 21.3652 13.3209L18.0645 13.3209L18.0645 15.912L20.8374 15.912C20.7239 16.762 20.6452 17.6223 20.6452 18.5032L2.58064 18.5032L2.58064 15.912ZM2.58064 76.8047L2.58064 44.415L23.2258 44.415L23.2258 76.8047L2.58064 76.8047ZM25.8064 52.1885L38.7097 52.1885L38.7097 76.8047L25.8064 76.8047L25.8064 52.1885ZM41.2903 76.8047L41.2903 52.1885L54.1935 52.1885L54.1935 76.8047L41.2903 76.8047ZM77.4194 76.8047L56.7742 76.8047L56.7742 44.415L77.4194 44.415L77.4194 76.8047ZM59.3548 18.5032C59.3548 17.6223 59.2761 16.762 59.1626 15.912L61.9355 15.912L61.9355 13.3209L58.6348 13.3209C58.3884 12.4308 58.0916 11.5641 57.7277 10.7297L77.4194 10.7297L77.4194 13.3209L64.5161 13.3209L64.5161 15.912L77.4194 15.912L77.4194 18.5032L59.3548 18.5032Z" clip-rule="evenodd" fill="#232C38" fill-opacity="1.000000" fill-rule="evenodd"/>
	<path id="Shape" d="M41.29 18.5L43.87 18.5L43.87 16.21C43.87 14.92 44.58 13.76 45.73 13.18C47.77 12.16 49.03 10.11 49.03 7.83L49.03 5.54L46.45 5.54L46.45 7.83C46.45 9.12 45.73 10.28 44.58 10.86C42.55 11.88 41.29 13.93 41.29 16.21L41.29 18.5Z" fill="#232C38" fill-opacity="1.000000" fill-rule="nonzero"/>
	<path id="Shape" d="M36.12 16.21C36.12 14.92 36.84 13.76 37.99 13.18C40.02 12.16 41.29 10.11 41.29 7.83L41.29 5.54L38.7 5.54L38.7 7.83C38.7 9.12 37.99 10.28 36.84 10.86C34.81 11.88 33.54 13.93 33.54 16.21L33.54 18.5L36.12 18.5L36.12 16.21Z" fill="#232C38" fill-opacity="1.000000" fill-rule="nonzero"/>
	<rect id="Rectangle-path" x="33.548386" y="59.962036" width="2.580645" height="5.182357" fill="#232C38" fill-opacity="1.000000"/>
	<rect id="Rectangle-path" x="43.870972" y="59.962036" width="2.580645" height="5.182357" fill="#232C38" fill-opacity="1.000000"/>
</svg>
