<svg width="80.000000" height="81.000000" viewBox="0 0 80 81" fill="none" xmlns="http://www.w3.org/2000/svg" xmlns:xlink="http://www.w3.org/1999/xlink">
	<desc>
			Created with Pixso.
	</desc>
	<defs/>
	<rect id="Rectangle-path" x="2.000000" y="48.157837" width="41.220341" height="26.217688" fill="#C7A17A" fill-opacity="1.000000"/>
	<path id="Shape" d="M43.22 56.02L78 56.02L78 27.18L39.35 27.18L39.35 35.04L43.22 35.04L43.22 56.02Z" fill="#C7A17A" fill-opacity="1.000000" fill-rule="nonzero"/>
	<path id="Shape" d="M80 2.95618L80 8.13855C80 9.28253 79.4955 10.3022 78.7097 11.0147L78.7097 67.4506C79.4955 68.1631 80 69.1828 80 70.3268L80 75.5092C80 77.6521 78.2632 79.3959 76.129 79.3959L38.7097 79.3959L38.7097 79.2651C38.2929 79.3506 37.8607 79.3959 37.4194 79.3959L6.4516 79.3959C2.89417 79.3959 0 76.4899 0 72.918L0 36.6415C0 34.4986 1.73676 32.7547 3.87097 32.7547L37.4194 32.7547L37.4194 11.0147C36.6335 10.3022 36.129 9.28253 36.129 8.13855L36.129 2.95618C36.129 0.813232 37.8658 -0.930603 40 -0.930603L76.129 -0.930603C78.2632 -0.930603 80 0.813232 80 2.95618ZM77.4194 2.95618L77.4194 8.13855C77.4194 8.85242 76.84 9.43408 76.129 9.43408L70.9678 9.43408L70.9678 1.66058L76.129 1.66058C76.84 1.66058 77.4194 2.24231 77.4194 2.95618ZM47.7419 9.43408L47.7419 1.66058L52.9032 1.66058L52.9032 9.43408L47.7419 9.43408ZM55.4839 1.66058L60.6451 1.66058L60.6451 9.43408L55.4839 9.43408L55.4839 1.66058ZM63.2258 1.66058L68.3871 1.66058L68.3871 9.43408L63.2258 9.43408L63.2258 1.66058ZM38.7097 2.95618C38.7097 2.24231 39.2891 1.66058 40 1.66058L45.1613 1.66058L45.1613 9.43408L40 9.43408C39.2891 9.43408 38.7097 8.85242 38.7097 8.13855L38.7097 2.95618ZM6.4516 76.8047C4.31744 76.8047 2.58063 75.0609 2.58063 72.918L2.58063 43.1194L36.129 43.1194L36.129 40.5283L2.58063 40.5283L2.58063 36.6415C2.58063 35.9276 3.15997 35.3459 3.87097 35.3459L40 35.3459C40.7109 35.3459 41.2903 35.9276 41.2903 36.6415L41.2903 40.5283L38.7097 40.5283L38.7097 43.1194L41.2903 43.1194L41.2903 72.918C41.2903 75.0609 39.5535 76.8047 37.4194 76.8047L6.4516 76.8047ZM77.4194 75.5092C77.4194 76.2243 76.84 76.8047 76.129 76.8047L42.5471 76.8047C43.3665 75.7191 43.871 74.382 43.871 72.918L43.871 69.0312L76.129 69.0312C76.84 69.0312 77.4194 69.6116 77.4194 70.3268L77.4194 75.5092ZM76.129 66.4401L43.871 66.4401L43.871 36.6415C43.871 34.4986 42.1342 32.7547 40 32.7547L40 12.0253L76.129 12.0253L76.129 66.4401Z" clip-rule="evenodd" fill="#151D28" fill-opacity="1.000000" fill-rule="evenodd"/>
	<path id="Shape" d="M64.3961 46.8857C61.7871 49.5041 58.5006 50.8761 55.52 50.8761C53.3741 50.8761 51.3884 50.1661 49.9277 48.6982C46.4374 45.1937 47.2477 38.6768 51.7342 34.1708C56.2206 29.6647 62.7109 28.8511 66.2026 32.3569C69.6942 35.8628 68.8839 42.3796 64.3961 46.8857ZM60.5935 32.7418C58.3006 32.7418 55.6761 33.8754 53.5574 36.0027C50.5148 39.059 49.5135 43.1674 50.969 45.8194L63.3187 33.4193C62.5174 32.9763 61.5922 32.7418 60.5935 32.7418ZM62.5716 45.0537C59.529 48.1074 55.4361 49.1154 52.7948 47.6514L65.16 35.2358C66.6155 37.8891 65.6142 41.9974 62.5716 45.0537Z" clip-rule="evenodd" fill="#151D28" fill-opacity="1.000000" fill-rule="evenodd"/>
	<path id="Shape" d="M13.7974 68.1334C10.3058 64.6276 11.1161 58.1107 15.6039 53.6047C20.0916 49.0986 26.582 48.2837 30.0723 51.7921C33.5639 55.298 32.7535 61.8148 28.2658 66.3209C25.6568 68.9393 22.3704 70.3113 19.3897 70.3113C17.2439 70.3113 15.2581 69.6013 13.7974 68.1334ZM17.4284 55.4366C19.5471 53.3105 22.1729 52.1769 24.4645 52.1769C25.4633 52.1769 26.3884 52.4114 27.1897 52.8545L14.84 65.2546C13.3845 62.6013 14.3858 58.4929 17.4284 55.4366ZM16.6658 67.0853C19.3071 68.5493 23.4 67.5413 26.4426 64.4876C29.4852 61.4313 30.4865 57.323 29.031 54.6696L16.6658 67.0853Z" clip-rule="evenodd" fill="#151D28" fill-opacity="1.000000" fill-rule="evenodd"/>
</svg>
