<svg width="75.000000" height="81.000000" viewBox="0 0 75 81" fill="none" xmlns="http://www.w3.org/2000/svg" xmlns:xlink="http://www.w3.org/1999/xlink">
	<desc>
			Created with Pixso.
	</desc>
	<defs/>
	<path id="Shape" d="M9 17.14L9 17.89C9 23.68 12 29.07 16.97 32.2L42.02 32.2C46.99 29.07 50 23.68 50 17.89L50 17.14L9 17.14Z" fill="#C7A17A" fill-opacity="1.000000" fill-rule="nonzero"/>
	<path id="Shape" d="M67.2574 -0.930664C71.5271 -0.930664 74.9993 2.55579 74.9993 6.8429C74.9993 10.2205 72.8406 13.0928 69.8381 14.163L69.8381 79.3946L5.32196 79.3946C2.47546 79.3946 0.160645 77.0703 0.160645 74.2122C0.160645 71.3541 2.47546 69.0298 5.32196 69.0298L15.7877 69.0298C14.6445 67.9079 13.8032 66.4827 13.3787 64.8866L9.73352 63.6687C7.09485 62.7851 5.32196 60.3145 5.32196 57.5225L5.32196 49.4457C5.32196 46.6537 7.09357 44.1843 9.73224 43.3008L13.0638 42.1865L13.0638 41.8238C13.0638 41.2524 13.1942 40.7134 13.4161 40.225C11.7078 39.5785 10.4832 37.9318 10.4832 35.9937C10.4832 33.9324 11.8677 32.2079 13.7452 31.6586C10.0394 28.1372 7.90259 23.2347 7.90259 17.9888L7.90259 14.6164C3.63287 14.6164 0.160645 11.13 0.160645 6.8429C0.160645 2.55579 3.63287 -0.930664 7.90259 -0.930664L67.2574 -0.930664ZM37.58 1.66052C38.291 1.66052 38.8703 2.24225 38.8703 2.95612C38.8703 3.66998 38.291 4.25171 37.58 4.25171L24.6768 4.25171C23.9658 4.25171 23.3865 3.66998 23.3865 2.95612C23.3865 2.24225 23.9658 1.66052 24.6768 1.66052L37.58 1.66052ZM2.74127 6.8429C2.74127 3.9848 5.05615 1.66052 7.90259 1.66052L21.0432 1.66052C20.8987 2.06732 20.8058 2.50006 20.8058 2.95612C20.8058 5.099 22.5426 6.8429 24.6768 6.8429L37.58 6.8429C39.7142 6.8429 41.451 5.099 41.451 2.95612C41.451 2.50006 41.3581 2.06732 41.2136 1.66052L54.3542 1.66052C57.2006 1.66052 59.5155 3.9848 59.5155 6.8429C59.5155 9.70093 57.2006 12.0252 54.3542 12.0252L7.90259 12.0252C5.05615 12.0252 2.74127 9.70093 2.74127 6.8429ZM59.5155 32.7546L54.3542 32.7546L54.3542 27.5723L59.5155 27.5723L59.5155 32.7546ZM54.3542 43.1194L59.5155 43.1194L59.5155 48.3018L54.3542 48.3018L54.3542 43.1194ZM59.5155 40.5282L54.3542 40.5282L54.3542 35.3458L59.5155 35.3458L59.5155 40.5282ZM51.7736 24.9811L51.7736 50.8929L59.5155 50.8929L59.5155 69.0311L43.8884 69.0311C45.5658 67.3832 46.6122 65.09 46.6122 62.5532L46.6122 41.8238C46.6122 41.2524 46.4819 40.7134 46.26 40.225C47.9684 39.5772 49.1929 37.9318 49.1929 35.9937C49.1929 33.9337 47.8084 32.2092 45.931 31.6586C49.6368 28.1359 51.7736 23.2334 51.7736 17.9888L51.7736 14.6164L59.5155 14.6164L59.5155 24.9811L51.7736 24.9811ZM49.1929 14.6164L49.1929 17.9888C49.1929 23.429 46.5168 28.4313 42.0355 31.459L23.3865 31.459L23.3865 27.5723C23.3865 24.0004 20.4922 21.0944 16.9348 21.0944L10.8097 21.0944C10.6149 20.0799 10.4832 19.0473 10.4832 17.9888L10.4832 14.6164L49.1929 14.6164ZM11.5181 23.6855L16.9348 23.6855C19.069 23.6855 20.8058 25.4294 20.8058 27.5723L20.8058 31.459L17.6406 31.459C14.7929 29.5338 12.6807 26.8144 11.5181 23.6855ZM14.9993 34.0502L44.6768 34.0502C45.7439 34.0502 46.6122 34.9222 46.6122 35.9937C46.6122 37.0651 45.7439 37.937 44.6768 37.937L14.9993 37.937C13.9323 37.937 13.0638 37.0651 13.0638 35.9937C13.0638 34.9222 13.9323 34.0502 14.9993 34.0502ZM7.90259 57.5225L7.90259 49.4457C7.90259 47.7705 8.96582 46.2884 10.549 45.7572L13.0638 44.9164L13.0638 62.0531L10.549 61.2123C8.96582 60.6798 7.90259 59.1976 7.90259 57.5225ZM15.6445 62.5532L15.6445 41.8238C15.6445 41.1086 16.2239 40.5282 16.9348 40.5282L42.7413 40.5282C43.4523 40.5282 44.0316 41.1086 44.0316 41.8238L44.0316 62.5532C44.0316 66.1251 41.1374 69.0311 37.58 69.0311L22.0961 69.0311C18.5387 69.0311 15.6445 66.1251 15.6445 62.5532ZM67.2574 76.8047L5.32196 76.8047C3.89868 76.8047 2.74127 75.6426 2.74127 74.2135C2.74127 72.7845 3.89868 71.6223 5.32196 71.6223L62.0961 71.6223L62.0961 14.6164L67.2574 14.6164L67.2574 76.8047ZM67.2574 12.0252L60.109 12.0252C61.34 10.648 62.0961 8.83551 62.0961 6.8429C62.0961 4.85028 61.34 3.03772 60.109 1.66052L67.2574 1.66052C70.1039 1.66052 72.4187 3.9848 72.4187 6.8429C72.4187 9.70093 70.1039 12.0252 67.2574 12.0252Z" clip-rule="evenodd" fill="#151D28" fill-opacity="1.000000" fill-rule="evenodd"/>
	<rect id="Rectangle-path" x="38.870361" y="43.119385" width="2.580645" height="2.591178" fill="#333333" fill-opacity="1.000000"/>
	<rect id="Rectangle-path" x="18.225098" y="43.119385" width="18.064516" height="2.591178" fill="#333333" fill-opacity="1.000000"/>
</svg>
