<svg width="40.000000" height="40.000000" viewBox="0 0 40 40" fill="none" xmlns="http://www.w3.org/2000/svg" xmlns:xlink="http://www.w3.org/1999/xlink">
	<desc>
			Created with Pixso.
	</desc>
	<defs/>
	<path id="Shape" d="M15.99 25.02C13.74 21.2 13.74 17.22 13.96 15.36C8.69 17.87 5.54 23.25 7.66 28.08C10.16 28.33 13.67 27.57 15.99 25.02Z" fill="#415167" fill-opacity="1.000000" fill-rule="nonzero"/>
	<path id="Shape" d="M16.57 25.95C14.52 28.13 10.99 29.36 8.3 29.19C10.76 32.74 17.29 34.3 23.18 30.88C20.66 30.27 18.28 28.48 16.57 25.95Z" fill="#415167" fill-opacity="1.000000" fill-rule="nonzero"/>
	<path id="Shape" d="M22.73 18C19.21 14.1 18.91 10.38 19.4 7.94C15.76 10.02 13.99 15.37 15.41 20.82C17 27.04 22.65 31.76 27.95 29.38C28.12 27.63 27.9 23.71 22.73 18Z" fill="#415167" fill-opacity="1.000000" fill-rule="nonzero"/>
	<path id="Shape" d="M32.52 16.23C30.9 10.02 25.51 5.73 20.59 7.39C19.88 9.73 19.98 13.48 23.53 17.3C25.14 19.2 29.12 23.69 29.05 28.77C32.31 26.48 33.84 21.41 32.52 16.23Z" fill="#415167" fill-opacity="1.000000" fill-rule="nonzero"/>
</svg>
